<?xml version="1.0" standalone="no"?>
<!DOCTYPE svg PUBLIC "-//W3C//DTD SVG 20010904//EN"
 "http://www.w3.org/TR/2001/REC-SVG-20010904/DTD/svg10.dtd">
<svg version="1.0" xmlns="http://www.w3.org/2000/svg"
 width="300.000000pt" height="300.000000pt" viewBox="0 0 300.000000 300.000000"
 preserveAspectRatio="xMidYMid meet">
<metadata>
Created by potrace 1.10, written by Peter Selinger 2001-2011
</metadata>
<g transform="translate(0.000000,300.000000) scale(0.100000,-0.100000)"
fill="#000000" stroke="none">
<path d="M170 2083 c0 -3 84 -261 186 -572 102 -311 199 -608 215 -658 l31
-93 166 0 167 0 109 438 c126 504 133 532 146 532 6 0 10 -6 10 -13 0 -8 60
-226 133 -486 l134 -472 168 0 168 0 153 502 c84 276 155 508 158 516 5 11
-17 13 -130 11 l-136 -3 -93 -340 c-50 -187 -95 -353 -100 -370 l-7 -30 -8 25
c-5 14 -73 249 -152 524 l-143 498 -62 -5 c-113 -11 -176 -51 -248 -157 -67
-97 -103 -204 -192 -557 -43 -172 -81 -313 -84 -313 -4 0 -9 11 -11 25 -3 13
-70 245 -149 515 l-144 490 -142 0 c-79 0 -143 -3 -143 -7z m258 -60 c5 -10
69 -220 142 -468 73 -247 139 -462 146 -477 8 -15 23 -32 33 -38 16 -8 23 -5
40 16 12 15 25 43 30 63 6 20 41 160 79 312 76 301 112 400 176 487 57 77 113
114 179 120 37 3 56 0 63 -9 6 -8 68 -214 139 -459 141 -492 149 -516 176
-531 40 -21 57 13 115 225 24 88 60 220 80 291 19 72 39 141 43 155 7 24 12
25 94 28 80 3 87 1 87 -16 0 -17 -245 -832 -269 -895 l-11 -28 -137 3 -138 3
-130 458 c-141 493 -152 521 -196 481 -11 -10 -27 -30 -34 -44 -7 -14 -59
-208 -114 -430 -56 -223 -106 -420 -112 -437 l-11 -33 -128 0 c-90 0 -131 4
-138 12 -10 13 -402 1199 -402 1217 0 7 35 11 95 11 80 0 96 -3 103 -17z"/>
<path d="M1448 1970 l35 -119 446 -3 c423 -3 448 -4 485 -23 64 -32 81 -64 81
-150 0 -59 -4 -79 -21 -102 -36 -49 -66 -57 -229 -61 l-150 -4 -29 -97 c-16
-53 -31 -104 -33 -113 -5 -16 4 -18 98 -18 l104 0 145 -260 145 -259 150 -3
c83 -2 151 -3 153 -2 1 0 -70 126 -158 279 -88 153 -160 279 -160 281 0 2 7 4
16 4 28 0 134 62 161 94 54 64 76 132 81 246 7 168 -33 277 -126 345 -105 76
-183 84 -763 85 l-466 0 35 -120z m1095 40 c73 -27 129 -78 158 -142 21 -47
24 -68 24 -178 0 -110 -3 -131 -24 -178 -27 -60 -69 -101 -144 -138 -54 -28
-76 -49 -77 -74 0 -8 61 -121 135 -250 74 -129 135 -238 135 -243 0 -4 -46 -6
-101 -5 l-102 3 -96 170 c-54 94 -114 200 -134 237 -52 93 -73 108 -158 108
-59 0 -69 3 -69 18 0 30 30 116 43 124 6 4 62 8 122 8 135 0 179 12 226 59 43
42 63 104 57 171 -10 97 -63 158 -158 179 -27 6 -209 11 -445 11 -220 0 -406
4 -413 9 -14 8 -42 91 -42 122 0 18 21 19 433 21 466 3 547 -1 630 -32z"/>
</g>
</svg>
